<svg xmlns="http://www.w3.org/2000/svg" viewBox="0 0 512 512"><defs><style>.cls-1{fill:#f55b4b;}.cls-2{fill:#27273d;}.cls-3{fill:#fff;}.cls-4{fill:#cecece;}.cls-5{fill:#b7b7b7;}.cls-6{fill:#3e436d;}.cls-7{fill:#32314b;}.cls-8{fill:#b0d46c;}.cls-9{fill:#7a9147;}.cls-10{fill:#c9e293;}.cls-11{fill:#9e4830;}.cls-12{fill:#a65c3b;}.cls-13{fill:#934cf5;}</style></defs><title>Public Transport</title><g id="BULINE"><circle class="cls-1" cx="256" cy="256" r="256"/></g><g id="Icons"><circle class="cls-2" cx="129.26" cy="391" r="26.07"/><circle class="cls-3" cx="129.26" cy="391" r="10.86"/><circle class="cls-2" cx="401.41" cy="391" r="26.07"/><circle class="cls-3" cx="401.41" cy="391" r="10.86"/><path class="cls-4" d="M85.26,82h0A13.58,13.58,0,0,1,98.84,95.55V377.24a0,0,0,0,1,0,0H71.68a0,0,0,0,1,0,0V95.55A13.58,13.58,0,0,1,85.26,82Z"/><path class="cls-5" d="M89.61,82.69a13.56,13.56,0,0,0-9.24,12.86V377.23H71.68V95.55A13.57,13.57,0,0,1,85.26,82,13.32,13.32,0,0,1,89.61,82.69Z"/><path class="cls-6" d="M98.84,335.59h330.1a20.82,20.82,0,0,1,20.82,20.82v0a20.82,20.82,0,0,1-20.82,20.82H98.84a0,0,0,0,1,0,0V335.59A0,0,0,0,1,98.84,335.59Z"/><path class="cls-7" d="M449.76,356.41a20.83,20.83,0,0,1-20.83,20.83H98.84V363.11H428.93a20.82,20.82,0,0,0,19.6-13.76A20.87,20.87,0,0,1,449.76,356.41Z"/><circle class="cls-2" cx="139.38" cy="317.09" r="18.81"/><circle class="cls-2" cx="242.99" cy="317.09" r="18.81"/><path class="cls-8" d="M261.81,144.53V300.08a17,17,0,0,1-17,17H137.59a17,17,0,0,1-17-17V144.53a17,17,0,0,1,17-17H244.78A17,17,0,0,1,261.81,144.53Z"/><path class="cls-9" d="M142.53,310.94a17.91,17.91,0,0,1-1.08,6.15h-3.86a17,17,0,0,1-17-17v-6.75a18,18,0,0,1,22,17.61Z"/><path class="cls-9" d="M261.81,293.54v6.54a17,17,0,0,1-17,17h-4.71a18,18,0,0,1,17-24.19A17.54,17.54,0,0,1,261.81,293.54Z"/><rect class="cls-10" x="132.52" y="149.92" width="117.88" height="13.76" rx="6.88"/><rect class="cls-10" x="132.52" y="191.99" width="117.88" height="13.76" rx="6.88"/><rect class="cls-10" x="132.52" y="234.05" width="117.88" height="13.76" rx="6.88"/><rect class="cls-10" x="132.52" y="276.12" width="117.88" height="13.76" rx="6.88"/><path class="cls-2" d="M166.08,115.2h50.75a12.31,12.31,0,0,1,12.31,12.31v0a0,0,0,0,1,0,0H153.77a0,0,0,0,1,0,0v0a12.31,12.31,0,0,1,12.31-12.31Z"/><rect class="cls-11" x="268.68" y="210.75" width="166.59" height="124.84" rx="10.36"/><path class="cls-12" d="M290,213.77A18.26,18.26,0,0,1,271.74,232a18,18,0,0,1-3.06-.26V221.11a10.36,10.36,0,0,1,10.37-10.36h10.69A18.55,18.55,0,0,1,290,213.77Z"/><path class="cls-12" d="M435.28,221.11V232A18.27,18.27,0,0,1,417,213.77a18.55,18.55,0,0,1,.25-3h7.65A10.36,10.36,0,0,1,435.28,221.11Z"/><path class="cls-12" d="M290,333.88a13.89,13.89,0,0,1-.09,1.71H279.05a10.37,10.37,0,0,1-10.37-10.37v-9.33a18,18,0,0,1,3.06-.26A18.25,18.25,0,0,1,290,333.88Z"/><path class="cls-12" d="M435.28,315.63v9.59a10.37,10.37,0,0,1-10.37,10.37H417.1a16.18,16.18,0,0,1-.09-1.71A18.26,18.26,0,0,1,435.28,315.63Z"/><rect class="cls-12" x="311.42" y="210.74" width="15.93" height="124.3"/><rect class="cls-12" x="378.78" y="210.74" width="15.93" height="124.3"/><path class="cls-2" d="M392.18,210.75H381.31V196.16H324.82v14.58H314v-20a5.45,5.45,0,0,1,5.44-5.44h67.36a5.44,5.44,0,0,1,5.43,5.44Z"/><path class="cls-13" d="M455,417.07a256,256,0,0,1-398,0Z"/></g></svg>