<?xml version="1.0" encoding="iso-8859-1"?>
<!-- Generator: Adobe Illustrator 19.0.0, SVG Export Plug-In . SVG Version: 6.00 Build 0)  -->
<svg xmlns="http://www.w3.org/2000/svg" xmlns:xlink="http://www.w3.org/1999/xlink" version="1.1" id="Layer_1" x="0px" y="0px" viewBox="0 0 512 512" style="enable-background:new 0 0 512 512;" xml:space="preserve">
<g>
	<polygon style="fill:#D4C8B9;" points="195.539,447.238 153.097,447.238 153.097,478.302  "/>
	<polygon style="fill:#D4C8B9;" points="315.754,447.238 358.194,447.238 358.194,478.302  "/>
</g>
<g>
	<path style="fill:#FF8C01;" d="M49.306,337.278H37.074c-8.932,0-16.174,7.242-16.174,16.175v26.956   c0,8.932,7.242,16.174,16.174,16.174h12.232V337.278z"/>
	<path style="fill:#FF8C01;" d="M462.199,337.278h12.231c8.934,0,16.176,7.242,16.176,16.175v26.956   c0,8.932-7.242,16.174-16.176,16.174h-12.231L462.199,337.278L462.199,337.278z"/>
</g>
<g>
	<path style="fill:#F26D0A;" d="M20.9,354.767v25.642c0,8.932,7.242,16.174,16.174,16.174h12.232v-25.641H37.074   C28.142,370.941,20.9,363.7,20.9,354.767z"/>
	<path style="fill:#F26D0A;" d="M474.43,370.941h-12.231v25.641h12.231c8.934,0,16.176-7.241,16.176-16.174v-25.642   C490.606,363.7,483.364,370.941,474.43,370.941z"/>
</g>
<g>
	<circle style="fill:#C2C6D3;" cx="34.111" cy="249.86" r="29.013"/>
	<circle style="fill:#C2C6D3;" cx="478.202" cy="249.86" r="29.013"/>
</g>
<g>
	<path style="fill:#A9ADBF;" d="M46.726,223.728c-19.185-9.284-41.633,4.722-41.633,26.13c0,21.405,22.44,35.42,41.633,26.132   C24.89,265.423,24.915,234.281,46.726,223.728z"/>
	<path style="fill:#A9ADBF;" d="M474.426,249.858c0-11.5,6.692-21.436,16.393-26.13c-19.186-9.283-41.633,4.722-41.633,26.13   c0,21.406,22.44,35.418,41.633,26.132C481.118,271.296,474.426,261.359,474.426,249.858z"/>
</g>
<path style="fill:#87A1FF;" d="M414.69,286.061H96.601c-26.797,0-48.521,21.724-48.521,48.522v83.565h415.132v-83.565  C463.212,307.784,441.487,286.061,414.69,286.061z"/>
<g>
	<path style="fill:#4C73C1;" d="M121.906,286.061H96.601c-26.797,0-48.521,21.724-48.521,48.522v83.565h25.305v-83.565   C73.384,307.784,95.108,286.061,121.906,286.061z"/>
	<path style="fill:#4C73C1;" d="M332.646,280.644H178.645c-3.399,0-5.836,3.292-4.839,6.546l11.72,38.2   c0.653,2.125,2.616,3.574,4.839,3.574h130.559c2.223,0,4.186-1.45,4.837-3.574l11.722-38.2   C338.482,283.932,336.042,280.644,332.646,280.644z"/>
</g>
<path style="fill:#5B88CE;" d="M254.977,280.644c-6.194,15.295-10.634,31.482-13.071,48.32h79.019c2.223,0,4.186-1.45,4.837-3.574  c12.744-41.528,12.982-39.951,10.954-42.693C334.625,279.868,339.285,280.644,254.977,280.644z"/>
<path style="fill:#3562AA;" d="M211.507,325.39l-11.721-38.2c-0.47-1.536-0.185-3.203,0.768-4.493  c0.955-1.29,2.464-2.053,4.07-2.053h-25.98c-3.399,0-5.836,3.292-4.839,6.546l11.72,38.2c0.653,2.125,2.616,3.574,4.839,3.574h25.98  C214.123,328.964,212.159,327.514,211.507,325.39z"/>
<g>
	<path style="fill:#C8E5FC;" d="M140.744,349.344c0,16.624-13.476,30.1-30.101,30.1c-16.626,0-30.103-13.476-30.103-30.1   c0-16.627,13.477-30.103,30.103-30.103C127.267,319.24,140.744,332.717,140.744,349.344z"/>
	<path style="fill:#C8E5FC;" d="M370.199,349.344c0,16.624,13.477,30.1,30.102,30.1s30.102-13.476,30.102-30.1   c0-16.627-13.477-30.103-30.102-30.103S370.199,332.717,370.199,349.344z"/>
</g>
<g>
	<path style="fill:#8FC8F2;" d="M123.294,322.028c-19.917-9.243-42.755,5.35-42.755,27.315c0,21.964,22.838,36.55,42.755,27.312   C100.047,365.87,100.085,332.8,123.294,322.028z"/>
	<path style="fill:#8FC8F2;" d="M412.953,322.028c-19.916-9.242-42.754,5.35-42.754,27.315c0,16.624,13.477,30.1,30.102,30.1   c4.521,0,8.804-1.004,12.652-2.788C389.711,365.871,389.746,332.8,412.953,322.028z"/>
</g>
<g>
	<path style="fill:#9FB8FF;" d="M419.484,286.345v-9.325c0-88.041-71.372-159.412-159.414-159.412h-8.849   c-88.042,0-159.413,71.372-159.413,159.412v9.244C94.873,285.992,414.676,285.827,419.484,286.345z"/>
	<path style="fill:#9FB8FF;" d="M252.867,286.061c174.373,0,162.842-0.122,166.617,0.285v-9.325   c0-44.081-17.893-83.983-46.813-112.84C317.423,185.87,273.637,230.356,252.867,286.061z"/>
</g>
<path style="fill:#87A1FF;" d="M117.112,277.02c0-85.281,66.968-154.921,151.187-159.203c-2.726-0.139-5.469-0.209-8.229-0.209  h-8.849c-88.042,0-159.413,71.372-159.413,159.412v9.244c2.99-0.264,2.126-0.203,25.305-0.203V277.02z"/>
<path style="fill:#C8E5FC;" d="M259.116,153.973h-6.943c-66.245,0-125.057,52.604-125.057,127.086c0,2.796,2.266,5.062,5.061,5.062  h246.934c2.796,0,5.062-2.266,5.062-5.062v-2.028C384.174,210.074,328.072,153.973,259.116,153.973z"/>
<path style="fill:#8FC8F2;" d="M154.109,281.06c0-70.708,53.127-121.748,115.032-126.684c-3.308-0.263-6.651-0.402-10.025-0.402  h-6.943c-66.245,0-125.057,52.604-125.057,127.086c0,2.796,2.266,5.062,5.061,5.062h26.992  C156.375,286.121,154.109,283.856,154.109,281.06z"/>
<g>
	<path style="fill:#777984;" d="M73.239,447.238v38.972c0,8.931,7.242,16.172,16.174,16.172h48.522   c8.933,0,16.174-7.241,16.174-16.172v-38.972H73.239z"/>
	<path style="fill:#777984;" d="M357.182,447.238v38.972c0,8.931,7.241,16.172,16.174,16.172h48.523   c8.932,0,16.173-7.241,16.173-16.172v-38.972H357.182z"/>
</g>
<g>
	<path style="fill:#61626D;" d="M98.544,486.211v-38.972H73.239v38.972c0,8.931,7.242,16.172,16.174,16.172h25.305   C105.786,502.384,98.544,495.143,98.544,486.211z"/>
	<path style="fill:#61626D;" d="M382.488,486.211v-38.972h-25.306v38.972c0,8.931,7.241,16.172,16.174,16.172h25.304   C389.728,502.384,382.488,495.143,382.488,486.211z"/>
</g>
<path style="fill:#C2C6D3;" d="M480.959,432.694c0,8.592-6.965,15.557-15.558,15.557H45.891c-8.592,0-15.558-6.965-15.558-15.557  l0,0c0-8.591,6.966-15.558,15.558-15.558H465.4C473.995,417.136,480.959,424.103,480.959,432.694L480.959,432.694z"/>
<path style="fill:#A9ADBF;" d="M465.4,432.693H45.891c-5.755,0-10.768-3.134-13.46-7.779c-5.996,10.351,1.493,23.337,13.46,23.337  H465.4c11.97,0,19.457-12.984,13.46-23.337C476.169,429.559,471.155,432.693,465.4,432.693z"/>
<path style="fill:#01CC79;" d="M365.153,32.244c-47.932,0-86.929,38.983-86.929,86.901s38.996,86.901,86.929,86.901  c47.934,0,86.93-38.983,86.93-86.901S413.088,32.244,365.153,32.244z"/>
<path style="fill:#0BAA65;" d="M305.317,119.145c0-43.311,31.861-79.321,73.382-85.843c-52.746-8.299-100.474,32.586-100.474,85.843  c0,53.255,47.722,94.144,100.474,85.843C337.178,198.465,305.317,162.456,305.317,119.145z"/>
<path style="fill:#01CC79;" d="M365.126,228.586c-60.346,0-109.441-49.096-109.441-109.441S304.779,9.703,365.126,9.703  s109.441,49.095,109.441,109.441S425.472,228.586,365.126,228.586z M365.153,34.749c-46.551,0-84.424,37.86-84.424,84.396  s37.873,84.396,84.424,84.396c46.553,0,84.425-37.86,84.425-84.396C449.579,72.609,411.706,34.749,365.153,34.749z"/>
<path style="fill:#12DD85;" d="M414.639,187.461c9.253,3.976,19.33,6.394,29.899,6.911c48.155-50.807,36.939-133.073-23.346-169.182  c-9.858,3.317-18.929,8.357-26.858,14.759C457.515,63.285,469.374,147.727,414.639,187.461z"/>
<path style="fill:#06B569;" d="M280.973,125.224c-0.143-2.011-0.242-4.032-0.242-6.079s0.1-4.069,0.242-6.079  c2.935-53.338,44.24-96.614,96.711-102.637c-64.999-7.467-121.999,43.458-121.999,108.716c0,65.082,56.827,116.202,121.999,108.717  C325.212,221.838,283.907,178.562,280.973,125.224z"/>
<path style="fill:#F5F5F5;" d="M354.234,157.549c-3.07,0-6.144-1.121-8.558-3.383l-29.203-27.35  c-5.048-4.728-5.308-12.652-0.581-17.7c4.729-5.047,12.654-5.307,17.701-0.58l20.165,18.885l38.134-39.812  c4.783-4.997,12.712-5.165,17.706-0.382c4.993,4.784,5.164,12.711,0.38,17.706l-46.698,48.755  C360.82,156.255,357.531,157.549,354.234,157.549z"/>
<path d="M111.98,311.624c-20.571,0-37.307,16.736-37.307,37.307c0,20.57,16.736,37.305,37.307,37.305s37.306-16.735,37.306-37.305  C149.287,328.36,132.551,311.624,111.98,311.624z M111.98,371.21c-12.285,0-22.28-9.994-22.28-22.278  c0-12.286,9.995-22.28,22.28-22.28s22.279,9.995,22.279,22.28C134.26,361.216,124.265,371.21,111.98,371.21z"/>
<path d="M398.669,311.624c-20.57,0-37.305,16.736-37.305,37.307c0,20.57,16.735,37.305,37.305,37.305  c20.571,0,37.307-16.735,37.307-37.305C435.976,328.36,419.24,311.624,398.669,311.624z M398.669,371.21  c-12.285,0-22.278-9.994-22.278-22.278c0-12.286,9.994-22.28,22.278-22.28c12.286,0,22.28,9.995,22.28,22.28  C420.949,361.216,410.955,371.21,398.669,371.21z"/>
<path d="M322.948,379.215H188.991c-4.149,0-7.514,3.363-7.514,7.514s3.364,7.514,7.514,7.514h133.958  c4.15,0,7.514-3.363,7.514-7.514S327.099,379.215,322.948,379.215z"/>
<path d="M322.948,351.2H188.991c-4.149,0-7.514,3.363-7.514,7.514s3.364,7.514,7.514,7.514h133.958c4.15,0,7.514-3.363,7.514-7.514  S327.099,351.2,322.948,351.2z"/>
<path d="M512,250.467c0-19.976-16.252-36.228-36.229-36.228c-24.383,0-42.01,23.822-34.513,47.246l-16.196,10.187  c-0.547-16.264-3.443-32.189-8.647-47.496c71.926-35.346,88.074-130.879,31.257-187.696c-2.934-2.934-7.692-2.935-10.625-0.001  c-2.935,2.934-2.935,7.692-0.001,10.625c19.276,19.277,29.891,44.86,29.891,72.039c0,83.386-95.244,131.355-162.141,82.148  c-25.353-18.588-41.714-48.675-41.714-82.148c0-79.525,87.503-128.423,155.086-86.938c3.538,2.172,8.164,1.063,10.334-2.472  c2.171-3.536,1.065-8.163-2.472-10.334c-75.21-46.167-172.524,5.133-177.755,92.695c-87.734,1.49-159.03,71.668-162.316,158.961  l-15.216-9.57c7.494-23.416-10.118-47.246-34.511-47.246C16.252,214.238,0,230.49,0,250.467c0,33.223,41.205,48.838,63.273,24.074  l13.51,8.497c-18.661,7.779-32.19,25.456-34.013,46.438h-4.605c-12.97,0-23.521,10.552-23.521,23.521v26.68  c0,12.969,10.552,23.521,23.521,23.521h4.381v6.954c-10.062,2.416-17.565,11.484-17.565,22.276  c0,12.633,10.279,22.911,22.912,22.911h19.553V486.4c0,12.969,10.552,23.521,23.521,23.521h48.025  c12.97,0,23.521-10.551,23.521-23.521v-4.016l36.949-27.043h112.069l36.948,27.043v4.016c0,12.969,10.551,23.521,23.521,23.521  h48.026c12.969,0,23.521-10.551,23.521-23.521v-31.059h19.555c12.634,0,22.912-10.279,22.912-22.911  c0-10.792-7.503-19.86-17.565-22.276V403.2h4.592c12.969,0,23.521-10.552,23.521-23.521v-26.68  c0-12.969-10.551-23.521-23.521-23.521h-4.817c-1.804-20.756-15.063-38.278-33.414-46.184l13.914-8.752  C470.834,299.351,512,283.636,512,250.467z M36.229,271.671c-11.691,0-21.202-9.511-21.202-21.203  c0-11.69,9.511-21.201,21.202-21.201s21.202,9.511,21.202,21.201C57.432,262.159,47.92,271.671,36.229,271.671z M410.14,278.785  h-19.928c-0.062-15.176-2.66-29.928-7.742-43.99c6.571-0.985,13.462-2.629,20.032-4.859  C408.087,246.719,410.14,262.343,410.14,278.785z M328.072,293.872l-9.696,29.381h-125.76l-9.695-29.381H328.072z M135.802,278.785  c0.279-59.52,46.39-115.707,120.823-115.707c17.715,43.722,61.134,73.841,110.259,73.005c5.449,13.563,8.24,27.9,8.308,42.702  C363.62,278.785,143.361,278.785,135.802,278.785z M248.327,127.112c0.478,7.034,1.615,14.162,3.346,20.944  c-72.029,0.21-130.592,58.721-130.893,130.729h-19.928C100.852,192.853,168.773,128.566,248.327,127.112z M38.165,388.174  c-4.684,0-8.494-3.811-8.494-8.494v-26.68c0-4.684,3.811-8.494,8.494-8.494h4.381v43.67h-4.381V388.174z M147.488,486.4  c0,4.683-3.811,8.494-8.494,8.494H90.969c-4.684,0-8.494-3.811-8.494-8.494v-31.059h65.013  C147.488,508.128,147.488,468.885,147.488,486.4z M162.515,463.763v-8.421h11.506L162.515,463.763z M336.973,455.341h11.505v8.42  L336.973,455.341z M428.52,486.4c0,4.683-3.811,8.494-8.494,8.494H372c-4.683,0-8.494-3.811-8.494-8.494c0-29.546,0,13.666,0-31.059  h65.013V486.4H428.52z M481.535,352.998v26.68c0,4.684-3.811,8.494-8.494,8.494h-4.592v-43.67h4.592  C477.724,344.504,481.535,348.314,481.535,352.998z M453.421,334.323c0,25.115,0,50.074,0,75.196H104.06  c-4.149,0-7.514,3.363-7.514,7.514s3.364,7.514,7.514,7.514h359.042c4.348,0,7.885,3.537,7.885,7.885  c0,4.348-3.537,7.884-7.885,7.884c-12.345,0-389.482,0-415.209,0c-4.348,0-7.885-3.536-7.885-7.884c0-4.348,3.537-7.885,7.885-7.885  h30.454c4.149,0,7.514-3.363,7.514-7.514s-3.364-7.514-7.514-7.514H57.573c0-13.992,0.212-13.831,0.212-13.831  c0-62.907-0.212-61.365-0.212-61.365c0-22.337,18.173-40.511,40.511-40.511c4.978,0,64.035,0.06,69.014,0.06l12.951,39.25  c1.016,3.079,3.893,5.158,7.135,5.158H323.81c3.242,0,6.119-2.08,7.135-5.158l12.952-39.25c43.366,0,39.175,0.41,40.844-0.06  c59.18,0,6.175-0.024,32.831,0.276C437.721,296.408,453.421,313.562,453.421,334.323z M475.771,229.265  c11.691,0,21.202,9.511,21.202,21.201c0,11.692-9.511,21.203-21.202,21.203c-11.692,0-21.204-9.511-21.204-21.203  C454.566,238.777,464.079,229.265,475.771,229.265z"/>
<path d="M423.233,190.212c21.408-17.569,33.686-43.472,33.686-71.067c0-50.679-41.23-91.91-91.91-91.91s-91.91,41.23-91.91,91.91  c0,65.065,66.353,109.935,126.825,85.021c3.836-1.581,5.665-5.973,4.084-9.81c-1.581-3.836-5.972-5.665-9.81-4.084  c-50.509,20.814-106.072-16.642-106.072-71.127c0-42.392,34.49-76.883,76.883-76.883s76.883,34.49,76.883,76.883  c0,23.079-10.276,44.748-28.192,59.451c-3.208,2.633-3.675,7.367-1.042,10.575C415.292,192.378,420.027,192.843,423.233,190.212z"/>
<path d="M400.818,76.234c-5.438,0-10.712,2.252-14.469,6.178l-32.995,34.446l-14.744-13.807c-8.09-7.576-20.772-7.128-28.319,0.93  c-7.568,8.08-7.156,20.75,0.929,28.32l29.203,27.349c8.124,7.61,20.694,7.04,28.166-0.764l46.699-48.754  C427.485,97.396,418.354,76.234,400.818,76.234z M404.434,99.737c-50.569,52.794-47.296,50.299-50.318,50.299  c-2.72,0-1.124,0.799-32.626-28.704c-0.977-0.914-1.538-2.154-1.582-3.49c-0.144-4.479,5.202-6.847,8.43-3.82l20.165,18.886  c3.004,2.812,7.715,2.687,10.562-0.288l38.136-39.814c1.931-2.017,5.099-2.05,7.08-0.15  C406.276,94.563,406.345,97.741,404.434,99.737z"/>
<g>
</g>
<g>
</g>
<g>
</g>
<g>
</g>
<g>
</g>
<g>
</g>
<g>
</g>
<g>
</g>
<g>
</g>
<g>
</g>
<g>
</g>
<g>
</g>
<g>
</g>
<g>
</g>
<g>
</g>
</svg>
