<svg xmlns="http://www.w3.org/2000/svg" width="39.585" height="48.001" viewBox="0 0 39.585 48.001">
  <g>
    <path d="M39.585,37.655c0-2.923-1.634-4.178-4.263-5.452-.468-.228-.952-.427-1.436-.629a51.933,51.933,0,0,1-1.62,14.776,21.168,21.168,0,0,0,7.318-3.443V37.655Z" fill="#7a8e9b"/>
    <path d="M5.7,31.573c-.484.2-.97.4-1.44.63C1.634,33.477,0,34.732,0,37.655v5.252a21.16,21.16,0,0,0,7.323,3.444A51.886,51.886,0,0,1,5.7,31.573Z" fill="#7a8e9b"/>
    <path d="M11.1,41.423a26.1,26.1,0,0,0,17.385,0,34.209,34.209,0,0,0,1.04-11.341c-.117-.032-.229-.072-.346-.1a38.182,38.182,0,0,0-18.771,0h0c-.117.03-.229.07-.346.1A34.178,34.178,0,0,0,11.1,41.423Z" fill="#7a8e9b"/>
    <path d="M33.886,31.574c-.86-.358-1.734-.694-2.63-.984-.571-.185-1.149-.35-1.731-.508a34.178,34.178,0,0,1-1.04,11.341,26.1,26.1,0,0,1-17.385,0,34.193,34.193,0,0,1-1.039-11.341c-.587.159-1.171.326-1.747.513-.89.288-1.757.621-2.611.979a51.891,51.891,0,0,0,1.62,14.778,41.616,41.616,0,0,0,9.649,1.574h0q.648.033,1.322.053l.072,0c.466.013.939.02,1.425.02s.959-.007,1.426-.02l.071,0c.451-.013.891-.03,1.323-.053h0a41.684,41.684,0,0,0,9.654-1.575A51.99,51.99,0,0,0,33.886,31.574Z" fill="#f87670"/>
    <g>
      <polygon points="15.009 22.633 15.01 22.633 15.01 22.633 15.009 22.633" fill="#e49a61"/>
      <path d="M26.448,29.373a7.371,7.371,0,0,1-1.884-6.731,7.886,7.886,0,0,1-9.554-.009,7.382,7.382,0,0,1-1.882,6.74c0,1.324,2.2,2.5,4.075,3.267a6.845,6.845,0,0,0,5.178,0c1.873-.764,4.075-1.942,4.075-3.267Z" fill="#e49a61"/>
      <polygon points="24.566 22.633 24.564 22.642 24.569 22.638 24.566 22.633" fill="#e49a61"/>
    </g>
    <path d="M29.911,12.692a.916.916,0,0,0-.377.047c0-.375-.011-.732-.027-1.083l-19.462.185c-.005.216-.011.674-.011.9a.918.918,0,0,0-.377-.047c-.885.089-1.488,1.434-1.348,3s.971,2.77,1.856,2.681a.935.935,0,0,0,.317-.09A12.533,12.533,0,0,0,15,25.4a7.889,7.889,0,0,0,9.56,0,12.525,12.525,0,0,0,4.525-7.113.934.934,0,0,0,.318.09c.885.089,1.715-1.11,1.855-2.681S30.8,12.78,29.911,12.692Z" fill="#f1bb6b"/>
    <ellipse cx="19.386" cy="10.029" rx="12.677" ry="2.898" fill="#db5743"/>
    <path d="M25.439,2.329a6.822,6.822,0,0,0-1.666,4.062A.772.772,0,0,1,23,7.126h-.037a.773.773,0,0,1-.735-.807A8.483,8.483,0,0,1,24.2,1.38,8.819,8.819,0,0,0,20.187.035V6.352a.772.772,0,0,1-1.544,0V.035a8.849,8.849,0,0,0-4.019,1.333A8.477,8.477,0,0,1,16.6,6.313a.772.772,0,0,1-.733.807l-.039,0a.774.774,0,0,1-.771-.734,6.864,6.864,0,0,0-1.677-4.072A11.783,11.783,0,0,0,9.873,9.479c.959.955,5.08,1.436,9.538,1.436S28,10.442,28.953,9.481A11.835,11.835,0,0,0,25.439,2.329Z" fill="#f87670"/>
    <path d="M18.643.035V6.352a.772.772,0,0,0,1.544,0V.035C19.931.014,19.674,0,19.415,0S18.9.014,18.643.035Z" fill="#db5743"/>
    <path d="M13.38,2.316a6.871,6.871,0,0,1,1.677,4.072.774.774,0,0,0,.771.734l.039,0a.771.771,0,0,0,.733-.807,8.475,8.475,0,0,0-1.975-4.945A8.73,8.73,0,0,0,13.38,2.316Z" fill="#db5743"/>
    <path d="M24.2,1.38a8.493,8.493,0,0,0-1.969,4.939.773.773,0,0,0,.735.807H23a.772.772,0,0,0,.771-.735A6.817,6.817,0,0,1,25.44,2.329,9.166,9.166,0,0,0,24.2,1.38Z" fill="#db5743"/>
  </g>
</svg>
